<svg width="239" height="52" viewBox="0 0 239 52" fill="none" xmlns="http://www.w3.org/2000/svg">
<path d="M17.0714 34.6667C26.4997 34.6667 34.1429 26.9063 34.1429 17.3333C34.1429 7.7604 26.4997 0 17.0714 0C7.64314 0 0 7.7604 0 17.3333C0 26.9063 7.64314 34.6667 17.0714 34.6667Z" fill="#DE028E"/>
<path d="M34.1428 52C43.5711 52 51.2143 44.2396 51.2143 34.6667C51.2143 25.0938 43.5711 17.3334 34.1428 17.3334C24.7145 17.3334 17.0714 25.0938 17.0714 34.6667C17.0714 44.2396 24.7145 52 34.1428 52Z" fill="#90D5EF"/>
<path d="M15.1189 18.5503C16.1301 16.6328 17.5208 15.1451 19.2907 14.0882C21.0607 13.0314 23.031 12.5029 25.2029 12.5029C27.3748 12.5029 29.2028 12.9712 30.7808 13.9077C32.3575 14.8441 33.3687 15.9142 34.1429 17.3346V13.0013H38.4107V37.9179H34.1429V33.5846C33.3391 35.0339 32.3041 35.7681 30.7132 36.719C29.121 37.67 27.2693 38.1466 25.1578 38.1466C23.0464 38.1466 21.0228 37.6026 19.2682 36.5156C17.5125 35.4287 16.129 33.9036 15.1189 31.9403C14.1077 29.9771 13.6014 27.743 13.6014 25.2357C13.6014 22.7284 14.1065 20.4714 15.1189 18.5527V18.5503ZM33.0273 20.5545C32.284 19.1654 31.2799 18.1014 30.0149 17.3611C28.75 16.6208 27.3605 16.2513 25.8431 16.2513C24.3256 16.2513 22.9421 16.6136 21.6938 17.3382C20.4442 18.0628 19.4472 19.1209 18.7039 20.51C17.9606 21.899 17.5883 23.5301 17.5883 25.403C17.5883 27.276 17.9594 28.96 18.7039 30.3635C19.4472 31.7682 20.4442 32.8407 21.6938 33.5798C22.9433 34.3201 24.3268 34.6896 25.8431 34.6896C27.3594 34.6896 28.75 34.3201 30.0149 33.5798C31.2787 32.8395 32.2828 31.767 33.0273 30.3635C33.7706 28.9588 34.1429 27.3205 34.1429 25.4476C34.1429 23.5746 33.7706 21.9448 33.0273 20.5545Z" fill="white"/>
<path d="M33.0273 20.5316C32.284 19.1426 31.2798 18.0785 30.0149 17.3382C28.7499 16.5979 27.3605 16.2284 25.8431 16.2284C24.3256 16.2284 22.9421 16.5907 21.6938 17.3153C20.4442 18.04 19.4472 19.098 18.7039 20.4871C17.9606 21.8762 17.5883 23.5072 17.5883 25.3802C17.5883 27.2531 17.9594 28.9371 18.7039 30.3406C19.4472 31.7453 20.4442 32.8178 21.6938 33.5569C22.9433 34.2972 24.3268 34.6667 25.8431 34.6667C27.3593 34.6667 28.7499 34.2972 30.0149 33.5569C31.2787 32.8166 32.2828 31.7441 33.0273 30.3406C33.7706 28.9359 34.1429 27.2977 34.1429 25.4247C34.1429 23.5517 33.7706 21.9219 33.0273 20.5316Z" fill="#CC40B9"/>
<path d="M63.1512 20.2897C63.8874 18.8922 64.9011 17.8089 66.1909 17.0385C67.4807 16.2681 68.9164 15.8829 70.4991 15.8829C72.0817 15.8829 73.4142 16.2248 74.563 16.9061C75.7118 17.5886 76.5677 18.4468 77.1308 19.4808V16.1802H80.1219V34.2695H77.1308V30.9028C76.5452 31.9596 75.6726 32.8335 74.5132 33.5268C73.3538 34.2202 72.0047 34.5668 70.4659 34.5668C68.9271 34.5668 67.4523 34.1708 66.1743 33.3788C64.8951 32.5867 63.8874 31.4757 63.1512 30.0445C62.4138 28.6145 62.0463 26.9859 62.0463 25.1587C62.0463 23.3315 62.415 21.6872 63.1512 20.2897ZM76.3188 21.6258C75.777 20.6135 75.0455 19.8383 74.1244 19.299C73.2032 18.7598 72.1896 18.4902 71.0847 18.4902C69.9798 18.4902 68.9709 18.7538 68.0616 19.2822C67.1512 19.8106 66.4244 20.581 65.8838 21.5933C65.3421 22.6056 65.0706 23.7937 65.0706 25.1587C65.0706 26.5237 65.3409 27.7502 65.8838 28.7734C66.4256 29.7965 67.1523 30.5778 68.0616 31.117C68.9721 31.6563 69.9798 31.9259 71.0847 31.9259C72.1896 31.9259 73.2032 31.6563 74.1244 31.117C75.0455 30.5778 75.777 29.7965 76.3188 28.7734C76.8605 27.7502 77.132 26.5562 77.132 25.1912C77.132 23.8262 76.8605 22.6381 76.3188 21.6258Z" fill="#16191B"/>
<path d="M89.4045 16.9217C90.5639 16.2284 91.913 15.8817 93.4518 15.8817C94.9906 15.8817 96.4702 16.2669 97.76 17.0373C99.0498 17.8076 100.062 18.891 100.8 20.2885C101.536 21.686 101.905 23.3086 101.905 25.1575C101.905 27.0063 101.536 28.6133 100.8 30.0433C100.062 31.4745 99.0487 32.5855 97.76 33.3775C96.4702 34.1696 95.0345 34.5656 93.4518 34.5656C91.8692 34.5656 90.5959 34.2189 89.4365 33.5256C88.2771 32.8323 87.3939 31.9692 86.7869 30.934V42.8507H83.8278V16.1778H86.7869V19.5121C87.3725 18.4781 88.2439 17.6138 89.4045 16.9205V16.9217ZM98.0694 21.5933C97.5276 20.581 96.7962 19.8106 95.875 19.2822C94.9539 18.7538 93.9403 18.4901 92.8354 18.4901C91.7305 18.4901 90.7489 18.7598 89.8277 19.299C88.9066 19.8383 88.1692 20.6195 87.6167 21.6426C87.0643 22.6658 86.7881 23.849 86.7881 25.1912C86.7881 26.5333 87.0643 27.749 87.6167 28.7734C88.1692 29.7965 88.9054 30.5777 89.8277 31.117C90.7489 31.6563 91.7506 31.9259 92.8354 31.9259C93.9201 31.9259 94.9539 31.6563 95.875 31.117C96.7962 30.5777 97.5276 29.7965 98.0694 28.7734C98.6112 27.7502 98.8827 26.5453 98.8827 25.1587C98.8827 23.772 98.6112 22.6056 98.0694 21.5933Z" fill="#16191B"/>
<path d="M110.082 16.9217C111.242 16.2284 112.591 15.8817 114.13 15.8817C115.668 15.8817 117.148 16.2669 118.438 17.0373C119.728 17.8076 120.74 18.891 121.477 20.2885C122.214 21.686 122.582 23.3086 122.582 25.1575C122.582 27.0063 122.214 28.6133 121.477 30.0433C120.74 31.4745 119.726 32.5855 118.438 33.3775C117.148 34.1696 115.712 34.5656 114.13 34.5656C112.547 34.5656 111.274 34.2189 110.114 33.5256C108.955 32.8323 108.072 31.9692 107.465 30.934V42.8507H104.506V16.1778H107.465V19.5121C108.05 18.4781 108.922 17.6138 110.082 16.9205V16.9217ZM118.746 21.5933C118.204 20.581 117.473 19.8106 116.552 19.2822C115.63 18.7538 114.617 18.4901 113.512 18.4901C112.407 18.4901 111.425 18.7598 110.504 19.299C109.583 19.8383 108.846 20.6195 108.293 21.6426C107.741 22.6658 107.465 23.849 107.465 25.1912C107.465 26.5333 107.741 27.749 108.293 28.7734C108.846 29.7965 109.582 30.5777 110.504 31.117C111.425 31.6563 112.427 31.9259 113.512 31.9259C114.597 31.9259 115.63 31.6563 116.552 31.117C117.473 30.5777 118.204 29.7965 118.746 28.7734C119.288 27.7502 119.559 26.5453 119.559 25.1587C119.559 23.772 119.288 22.6056 118.746 21.5933Z" fill="#16191B"/>
<path d="M128.419 33.4113C127.064 32.6409 126.001 31.5467 125.232 30.1264C124.463 28.7072 124.077 27.0617 124.077 25.1912C124.077 23.3206 124.472 21.7089 125.264 20.2897C126.055 18.8705 127.134 17.7812 128.499 17.0216C129.865 16.2621 131.393 15.8829 133.084 15.8829C134.774 15.8829 136.302 16.2621 137.668 17.0216C139.034 17.7812 140.111 18.8657 140.903 20.2728C141.694 21.6812 142.09 23.3206 142.09 25.1912C142.09 27.0617 141.683 28.7072 140.871 30.1264C140.059 31.5455 138.958 32.6409 137.571 33.4113C136.184 34.1816 134.645 34.5668 132.954 34.5668C131.264 34.5668 129.774 34.1816 128.419 33.4113ZM135.944 31.1664C136.876 30.6608 137.629 29.9013 138.204 28.889C138.778 27.8766 139.066 26.644 139.066 25.1924C139.066 23.7407 138.784 22.5081 138.22 21.4958C137.656 20.4835 136.92 19.73 136.009 19.234C135.099 18.7393 134.113 18.4914 133.05 18.4914C131.988 18.4914 130.975 18.7393 130.076 19.234C129.176 19.7288 128.455 20.4835 127.914 21.4958C127.372 22.5081 127.1 23.7407 127.1 25.1924C127.1 26.644 127.366 27.9103 127.897 28.9227C128.428 29.935 129.137 30.6885 130.026 31.1832C130.914 31.6779 131.89 31.9259 132.952 31.9259C134.014 31.9259 135.011 31.6731 135.943 31.1664H135.944Z" fill="#16191B"/>
<path d="M144.788 12.6473C144.398 12.2513 144.203 11.7674 144.203 11.1945C144.203 10.6215 144.398 10.1376 144.788 9.7416C145.178 9.34558 145.655 9.14697 146.219 9.14697C146.783 9.14697 147.222 9.34438 147.601 9.7416C147.981 10.1376 148.17 10.6215 148.17 11.1945C148.17 11.7674 147.981 12.2513 147.601 12.6473C147.222 13.0434 146.761 13.242 146.219 13.242C145.677 13.242 145.178 13.0434 144.788 12.6473ZM147.649 16.179V34.2683H144.69V16.179H147.649Z" fill="#16191B"/>
<path d="M165.334 17.8462C166.678 19.1775 167.35 21.0974 167.35 23.6071V34.2695H164.424V24.0356C164.424 22.2313 163.979 20.8506 163.091 19.8925C162.202 18.9355 160.988 18.4564 159.451 18.4564C157.913 18.4564 156.649 18.9512 155.728 19.9418C154.807 20.9325 154.347 22.3733 154.347 24.2667V34.2683H151.388V16.179H154.347V18.7538C154.933 17.8293 155.728 17.1143 156.737 16.6076C157.745 16.102 158.856 15.848 160.07 15.848C162.237 15.848 163.992 16.5137 165.337 17.845L165.334 17.8462Z" fill="#16191B"/>
<path d="M174.503 18.6551V29.3175C174.503 30.1974 174.687 30.8197 175.056 31.182C175.424 31.5455 176.063 31.7261 176.974 31.7261H179.152V34.2683H176.485C174.838 34.2683 173.602 33.8831 172.779 33.1128C171.956 32.3424 171.544 31.0773 171.544 29.3163V18.6539H169.236V16.1778H171.544V11.6218H174.503V16.1778H179.153V18.6539H174.503V18.6551Z" fill="#16191B"/>
<path d="M197.586 26.3467H183.346C183.454 28.1294 184.056 29.5209 185.15 30.5224C186.245 31.5238 187.572 32.0246 189.132 32.0246C190.412 32.0246 191.479 31.7225 192.335 31.117C193.19 30.5115 193.792 29.7026 194.139 28.6903H197.326C196.849 30.4285 195.895 31.8428 194.465 32.9322C193.034 34.0215 191.257 34.5656 189.134 34.5656C187.443 34.5656 185.932 34.1804 184.598 33.41C183.265 32.6397 182.219 31.5455 181.461 30.1251C180.702 28.706 180.323 27.0605 180.323 25.19C180.323 23.3194 180.692 21.68 181.428 20.2716C182.164 18.8633 183.2 17.7788 184.533 17.0204C185.865 16.2609 187.399 15.8817 189.134 15.8817C190.868 15.8817 192.32 16.2561 193.621 17.0036C194.921 17.7523 195.923 18.7814 196.628 20.0899C197.333 21.3995 197.685 22.8788 197.685 24.5303C197.685 25.1033 197.653 25.7075 197.588 26.3455L197.586 26.3467ZM193.88 20.9493C193.381 20.1236 192.704 19.4964 191.848 19.0679C190.991 18.6382 190.044 18.4239 189.003 18.4239C187.507 18.4239 186.234 18.9078 185.183 19.8768C184.132 20.8458 183.531 22.1879 183.379 23.9044H194.628C194.628 22.7609 194.38 21.775 193.88 20.9505V20.9493Z" fill="#16191B"/>
<path d="M200.285 20.2897C201.021 18.8922 202.034 17.8089 203.324 17.0385C204.614 16.2681 206.06 15.8829 207.664 15.8829C209.051 15.8829 210.341 16.2079 211.533 16.8567C212.724 17.5055 213.635 18.359 214.264 19.4146V9.84155H217.255V34.2695H214.264V30.8691C213.679 31.9476 212.812 32.8335 211.663 33.5268C210.514 34.2202 209.17 34.5668 207.631 34.5668C206.092 34.5668 204.613 34.1708 203.323 33.3788C202.033 32.5867 201.02 31.4757 200.283 30.0445C199.546 28.6145 199.178 26.9859 199.178 25.1587C199.178 23.3315 199.547 21.6872 200.283 20.2897H200.285ZM213.452 21.6258C212.91 20.6135 212.179 19.8383 211.258 19.2991C210.337 18.7598 209.323 18.4902 208.218 18.4902C207.113 18.4902 206.104 18.7538 205.195 19.2822C204.284 19.8106 203.558 20.581 203.017 21.5933C202.475 22.6056 202.204 23.7937 202.204 25.1587C202.204 26.5237 202.474 27.7503 203.017 28.7734C203.559 29.7966 204.286 30.5778 205.195 31.117C206.105 31.6563 207.113 31.9259 208.218 31.9259C209.323 31.9259 210.337 31.6563 211.258 31.117C212.179 30.5778 212.91 29.7966 213.452 28.7734C213.994 27.7503 214.265 26.5562 214.265 25.1912C214.265 23.8262 213.994 22.6381 213.452 21.6258Z" fill="#16191B"/>
<path d="M220.962 20.2897C221.699 18.8922 222.712 17.8089 224.002 17.0385C225.292 16.2681 226.738 15.8829 228.342 15.8829C229.729 15.8829 231.019 16.2079 232.211 16.8567C233.402 17.5055 234.312 18.359 234.942 19.4146V9.84155H237.933V34.2695H234.942V30.8691C234.356 31.9476 233.49 32.8335 232.341 33.5268C231.192 34.2202 229.848 34.5668 228.309 34.5668C226.77 34.5668 225.291 34.1708 224.001 33.3788C222.711 32.5867 221.697 31.4757 220.961 30.0445C220.224 28.6145 219.856 26.9859 219.856 25.1587C219.856 23.3315 220.225 21.6872 220.961 20.2897H220.962ZM234.129 21.6258C233.587 20.6135 232.855 19.8383 231.934 19.2991C231.013 18.7598 230 18.4902 228.895 18.4902C227.79 18.4902 226.781 18.7538 225.872 19.2822C224.961 19.8106 224.234 20.581 223.694 21.5933C223.152 22.6056 222.881 23.7937 222.881 25.1587C222.881 26.5237 223.151 27.7503 223.694 28.7734C224.236 29.7966 224.962 30.5778 225.872 31.117C226.782 31.6563 227.79 31.9259 228.895 31.9259C230 31.9259 231.013 31.6563 231.934 31.117C232.855 30.5778 233.587 29.7966 234.129 28.7734C234.67 27.7503 234.942 26.5562 234.942 25.1912C234.942 23.8262 234.67 22.6381 234.129 21.6258Z" fill="#16191B"/>
</svg>
